<svg width="278" height="86" viewBox="0 0 278 86" fill="none" xmlns="http://www.w3.org/2000/svg">
<path d="M61.0841 43.4368H63.8261V20.8553H46.0835V43.4368H48.8255V23.436H61.0841V43.4368ZM70.3027 31.9847C71.4641 31.3718 72.5286 30.9202 74.3029 30.9202C77.174 30.9202 77.5933 32.7912 77.5933 35.501C76.6256 34.7913 75.1094 34.5655 73.9803 34.5655C70.8511 34.5655 68.4962 36.2107 68.4962 39.1786C68.4962 41.9852 70.3027 43.6626 72.948 43.6626C75.3352 43.6626 76.7223 42.6626 77.5933 41.5658V43.4368H80.0451V34.5332C80.0451 30.7589 78.5934 28.5975 74.4642 28.5975C72.6577 28.5975 70.9157 29.1137 69.6253 29.9201L70.3027 31.9847ZM73.8513 41.34C72.1738 41.34 71.2382 40.4367 71.2382 39.0496C71.2382 37.3721 72.7867 36.6624 74.3351 36.6624C75.5933 36.6624 76.6901 36.985 77.5933 37.6301V39.4689C76.8514 40.3399 75.7546 41.34 73.8513 41.34ZM84.3666 43.4368C85.6892 43.4368 87.8828 43.5659 89.6894 43.5659C94.2057 43.5659 96.367 42.0819 96.367 39.3399C96.367 37.5334 95.3025 36.3398 92.9798 35.9204V35.8559C94.7218 35.5978 95.8832 34.2429 95.8832 32.5332C95.8832 29.9201 93.6895 28.7911 89.6248 28.7911C87.528 28.7911 85.6247 28.9201 84.3666 28.9201V43.4368ZM90.0442 36.9204C92.3669 36.9204 93.625 37.6301 93.625 39.1463C93.625 40.6625 92.3024 41.469 89.9152 41.469C88.7538 41.469 87.7215 41.4045 86.9473 41.3722V36.9204H90.0442ZM89.8184 30.8879C91.6894 30.8879 93.1411 31.4686 93.1411 33.0493C93.1411 34.4687 91.9152 35.3075 90.2055 35.3075H86.9473V30.9847C87.5925 30.9524 88.6571 30.8879 89.8184 30.8879ZM111.759 39.8238C110.824 40.6948 109.179 41.34 107.308 41.34C104.469 41.34 102.469 39.727 102.243 36.985H113.405C113.501 36.5333 113.566 35.9527 113.566 35.2429C113.566 31.2428 110.566 28.5975 106.824 28.5975C102.049 28.5975 99.3394 31.9525 99.3394 36.1785C99.3394 40.7593 102.404 43.7594 107.114 43.7594C109.05 43.7594 111.146 43.1465 112.566 41.8561L111.759 39.8238ZM106.695 31.017C109.211 31.017 110.759 32.5009 110.888 34.8881H102.081C102.372 32.6622 104.049 31.017 106.695 31.017ZM126.436 43.4368H129.017V28.9201H118.919L118.661 33.4364C118.306 40.1464 116.242 41.2109 115.145 41.1142L115.339 43.6304C118.339 43.6304 120.532 42.211 121.178 33.9526L121.339 31.5009H126.436V43.4368ZM141.98 43.4046C143.302 43.4691 146.044 43.5336 148.044 43.5336C152.722 43.5336 156.238 41.5658 156.238 36.985C156.238 33.8881 154.367 32.0815 151.561 31.6299V31.5654C153.722 30.8557 155.432 29.1782 155.432 26.3394C155.432 23.2102 153.561 20.7585 148.173 20.7585C146.076 20.7585 143.238 20.8553 141.98 20.8875V43.4046ZM148.367 33.1461C151.625 33.1461 153.496 34.4365 153.496 36.8237C153.496 39.598 151.528 40.9529 148.206 40.9529C146.915 40.9529 145.464 40.8883 144.722 40.8238V33.1461H148.367ZM148.109 23.3392C151.109 23.3392 152.69 24.5973 152.69 26.9523C152.69 29.404 150.722 30.7266 148.335 30.7266H144.722V23.436C145.528 23.4037 146.915 23.3392 148.109 23.3392ZM159.857 36.1785C159.857 40.5335 162.954 43.7594 167.6 43.7594C172.245 43.7594 175.342 40.5335 175.342 36.1785C175.342 31.8234 172.245 28.5975 167.6 28.5975C162.954 28.5975 159.857 31.8234 159.857 36.1785ZM162.599 36.1785C162.599 33.1138 164.761 31.017 167.6 31.017C170.503 31.017 172.6 33.1461 172.6 36.1785C172.6 39.2754 170.503 41.34 167.6 41.34C164.696 41.34 162.599 39.2108 162.599 36.1785ZM179.065 49.8887H181.646V42.7594C182.679 43.4368 184.195 43.7594 185.743 43.7594C190.292 43.7594 193.292 40.3722 193.292 35.9527C193.292 31.6622 190.711 28.5975 186.582 28.5975C184.582 28.5975 182.646 29.4685 181.646 30.6299V28.9201H179.065V49.8887ZM185.84 31.017C188.84 31.017 190.55 33.1138 190.55 36.0494C190.55 39.1141 188.614 41.34 185.517 41.34C184.13 41.34 182.937 41.0819 181.646 40.2109V33.017C182.55 31.888 184.13 31.017 185.84 31.017ZM196.023 36.1785C196.023 40.5335 199.12 43.7594 203.765 43.7594C208.411 43.7594 211.508 40.5335 211.508 36.1785C211.508 31.8234 208.411 28.5975 203.765 28.5975C199.12 28.5975 196.023 31.8234 196.023 36.1785ZM198.765 36.1785C198.765 33.1138 200.927 31.017 203.765 31.017C206.669 31.017 208.766 33.1461 208.766 36.1785C208.766 39.2754 206.669 41.34 203.765 41.34C200.862 41.34 198.765 39.2108 198.765 36.1785ZM226.458 20.5327C224.974 22.4682 222.974 21.565 219.586 23.0166C214.973 24.9522 214.199 30.4363 214.199 34.7268C214.199 40.3077 217.167 43.7594 221.877 43.7594C226.296 43.7594 229.329 40.3722 229.329 36.3075C229.329 31.9525 226.748 29.0814 222.586 29.0814C220.135 29.0814 217.78 30.4363 216.844 32.4686H216.78C216.973 29.7588 217.748 26.6942 220.457 25.4684C223.651 24.0167 226.07 24.9522 227.845 22.565L226.458 20.5327ZM216.941 35.2107C217.393 33.3396 219.199 31.5009 221.941 31.5009C224.941 31.5009 226.587 33.5977 226.587 36.4365C226.587 39.1463 224.651 41.34 221.812 41.34C218.941 41.34 216.941 38.9528 216.941 35.2107ZM233.031 43.4368H237.934C242.515 43.4368 243.999 40.8238 243.999 38.2753C243.999 35.6946 242.708 33.2751 238.257 33.2751H235.611V28.9201H233.031V43.4368ZM237.773 35.6946C240.257 35.6946 241.257 36.6301 241.257 38.3721C241.257 40.0819 240.289 41.0174 237.741 41.0174H235.611V35.6946H237.773ZM258.722 39.8238C257.787 40.6948 256.141 41.34 254.27 41.34C251.432 41.34 249.432 39.727 249.206 36.985H260.367C260.464 36.5333 260.529 35.9527 260.529 35.2429C260.529 31.2428 257.529 28.5975 253.787 28.5975C249.012 28.5975 246.302 31.9525 246.302 36.1785C246.302 40.7593 249.367 43.7594 254.077 43.7594C256.012 43.7594 258.109 43.1465 259.529 41.8561L258.722 39.8238ZM253.658 31.017C256.174 31.017 257.722 32.5009 257.851 34.8881H249.044C249.335 32.6622 251.012 31.017 253.658 31.017ZM248.851 23.7586C248.851 24.7909 249.528 25.3716 250.367 25.3716C251.077 25.3716 251.786 24.7909 251.786 23.7586C251.786 22.8553 251.077 22.2747 250.367 22.2747C249.528 22.2747 248.851 22.8553 248.851 23.7586ZM255.4 23.7586C255.4 24.7909 256.109 25.3716 256.948 25.3716C257.658 25.3716 258.367 24.7909 258.367 23.7586C258.367 22.8553 257.658 22.2747 256.948 22.2747C256.109 22.2747 255.4 22.8553 255.4 23.7586ZM264.03 43.4368C265.353 43.4368 267.546 43.5659 269.353 43.5659C273.869 43.5659 276.03 42.0819 276.03 39.3399C276.03 37.5334 274.966 36.3398 272.643 35.9204V35.8559C274.385 35.5978 275.546 34.2429 275.546 32.5332C275.546 29.9201 273.353 28.7911 269.288 28.7911C267.191 28.7911 265.288 28.9201 264.03 28.9201V43.4368ZM269.708 36.9204C272.03 36.9204 273.288 37.6301 273.288 39.1463C273.288 40.6625 271.966 41.469 269.579 41.469C268.417 41.469 267.385 41.4045 266.611 41.3722V36.9204H269.708ZM269.482 30.8879C271.353 30.8879 272.804 31.4686 272.804 33.0493C272.804 34.4687 271.579 35.3075 269.869 35.3075H266.611V30.9847C267.256 30.9524 268.32 30.8879 269.482 30.8879Z" fill="white"/>
<path d="M55.0611 72.3834C54.3779 73.1576 53.3532 73.7042 52.1236 73.7042C50.0969 73.7042 48.4346 72.3151 48.4346 70.0607C48.4346 67.8975 50.0969 66.4173 51.9414 66.4173C53.0117 66.4173 54.0136 66.6906 54.8789 67.4876L55.7214 66.053C54.7651 65.0966 53.3305 64.7095 51.6909 64.7095C48.6851 64.7095 46.4991 67.0777 46.4991 70.0607C46.4991 73.2943 48.7307 75.412 51.987 75.412C53.5582 75.412 55.0611 74.82 55.9264 73.7042L55.0611 72.3834ZM68.3659 67.1005C69.1857 66.6678 69.9372 66.349 71.1896 66.349C73.2162 66.349 73.5123 67.6698 73.5123 69.5825C72.8291 69.0816 71.7589 68.9222 70.9619 68.9222C68.7531 68.9222 67.0907 70.0835 67.0907 72.1785C67.0907 74.1596 68.3659 75.3437 70.2332 75.3437C71.9183 75.3437 72.8974 74.6378 73.5123 73.8636V75.1843H75.2429V68.8994C75.2429 66.2352 74.2182 64.7095 71.3034 64.7095C70.0283 64.7095 68.7986 65.0738 67.8877 65.6431L68.3659 67.1005ZM70.8708 73.7042C69.6867 73.7042 69.0263 73.0666 69.0263 72.0874C69.0263 70.9033 70.1193 70.4023 71.2124 70.4023C72.1004 70.4023 72.8747 70.63 73.5123 71.0855V72.3834C72.9885 72.9982 72.2143 73.7042 70.8708 73.7042ZM96.7837 64.9372H94.3927L90.0661 69.9469L94.6887 75.1843H97.2163L92.2977 69.833L96.7837 64.9372ZM87.8118 75.1843H89.6335V64.9372H87.8118V75.1843ZM115.994 72.3834C115.311 73.1576 114.286 73.7042 113.057 73.7042C111.03 73.7042 109.368 72.3151 109.368 70.0607C109.368 67.8975 111.03 66.4173 112.875 66.4173C113.945 66.4173 114.947 66.6906 115.812 67.4876L116.655 66.053C115.698 65.0966 114.264 64.7095 112.624 64.7095C109.618 64.7095 107.432 67.0777 107.432 70.0607C107.432 73.2943 109.664 75.412 112.92 75.412C114.491 75.412 115.994 74.82 116.86 73.7042L115.994 72.3834ZM127.514 70.0607C127.514 73.1349 129.7 75.412 132.979 75.412C136.258 75.412 138.444 73.1349 138.444 70.0607C138.444 66.9866 136.258 64.7095 132.979 64.7095C129.7 64.7095 127.514 66.9866 127.514 70.0607ZM129.449 70.0607C129.449 67.8975 130.975 66.4173 132.979 66.4173C135.028 66.4173 136.508 67.9202 136.508 70.0607C136.508 72.2468 135.028 73.7042 132.979 73.7042C130.929 73.7042 129.449 72.2013 129.449 70.0607ZM155.714 79.7386H157.536V75.412H157.832C161.43 75.412 163.343 73.1121 163.343 70.0607C163.343 67.0549 161.248 64.7095 157.832 64.7095H157.536V59.2444H155.714V64.7095H155.441C151.911 64.7095 149.908 67.2826 149.908 70.0607C149.908 73.1121 151.934 75.412 155.464 75.412H155.714V79.7386ZM151.843 70.0607C151.843 68.0796 153.073 66.4173 155.418 66.4173H155.714V73.7042H155.532C153.164 73.7042 151.843 72.1785 151.843 70.0607ZM157.832 66.4173C160.155 66.4173 161.407 68.1707 161.407 70.0607C161.407 72.2013 160.132 73.7042 157.741 73.7042H157.536V66.4173H157.832ZM174.792 70.0607C174.792 73.1349 176.978 75.412 180.257 75.412C183.536 75.412 185.722 73.1349 185.722 70.0607C185.722 66.9866 183.536 64.7095 180.257 64.7095C176.978 64.7095 174.792 66.9866 174.792 70.0607ZM176.728 70.0607C176.728 67.8975 178.253 66.4173 180.257 66.4173C182.307 66.4173 183.787 67.9202 183.787 70.0607C183.787 72.2468 182.307 73.7042 180.257 73.7042C178.208 73.7042 176.728 72.2013 176.728 70.0607ZM205.384 75.1843H207.206V64.9372H205.384V69.1499H199.691V64.9372H197.869V75.1843H199.691V70.8577H205.384V75.1843ZM221.84 75.1843L227.761 67.5559V75.1843H229.583V64.9372H227.761L221.84 72.5656V64.9372H220.019V75.1843H221.84ZM250.292 72.3834C249.609 73.1576 248.584 73.7042 247.354 73.7042C245.327 73.7042 243.665 72.3151 243.665 70.0607C243.665 67.8975 245.327 66.4173 247.172 66.4173C248.242 66.4173 249.244 66.6906 250.109 67.4876L250.952 66.053C249.996 65.0966 248.561 64.7095 246.921 64.7095C243.916 64.7095 241.73 67.0777 241.73 70.0607C241.73 73.2943 243.961 75.412 247.218 75.412C248.789 75.412 250.292 74.82 251.157 73.7042L250.292 72.3834ZM261.619 66.7589H265.376V75.1843H267.198V66.7589H270.955V64.9372H261.619V66.7589Z" fill="white"/>
<path fill-rule="evenodd" clip-rule="evenodd" d="M20.8188 31.6379C22.6783 28.8011 23.2575 26.1853 22.0779 24.6763C20.0517 22.0844 13.6041 23.7395 7.6767 28.3731C1.74928 33.0066 -1.41335 38.864 0.612776 41.4559C2.6389 44.0478 9.08651 42.3927 15.0139 37.7591C15.0779 37.7091 15.1416 37.6589 15.205 37.6086C10.6921 41.0812 6.07644 42.6098 4.83563 41.0225C3.57798 39.4137 6.26367 35.213 10.8343 31.6401C15.4049 28.0672 20.1296 26.475 21.3873 28.0838C21.966 28.8242 21.7097 30.1135 20.8188 31.6379Z" fill="white"/>
<path d="M23.8174 27.3746C23.8174 26.1586 23.4382 24.9808 23.1064 24.5305C24.5284 29.2943 20.4402 34.449 15.321 38.4306C10.2017 42.4122 2.70069 44.4386 0.496585 41.9145C0.496585 41.9145 0.318835 43.8698 7.92655 44.4386C10.1965 44.6083 10.6995 49.7355 11.0194 51.1931C11.9908 55.6182 10.9839 61.6448 10.6995 66.8351C10.415 72.0254 13.6146 79.4554 20.3335 81.6239C13.3657 76.8958 12.157 69.9635 12.4414 66.8351C12.7258 63.7067 14.2189 57.0588 13.7923 52.7217C13.3955 48.6879 12.6547 45.9317 12.7258 44.723C12.7676 44.012 13.9938 43.1825 14.5389 43.0166C15.9135 42.4004 18.4849 41.3742 19.3381 40.6347C20.1913 39.8953 20.1202 39.035 20.3335 37.7552C20.689 36.7598 21.8622 36.7598 22.4665 37.3286C23.7695 38.5548 23.1064 50.1266 23.1064 55.7435C25.2394 42.2345 23.8174 36.3687 23.1064 32.5649C22.8406 31.1429 23.8174 29.0454 23.8174 27.3746Z" fill="white"/>
<path d="M11.5504 65.2109C13.4725 66.4158 17.0659 67.8307 22.7499 65.8285C16.9971 68.9684 12.6914 66.9151 11.5504 65.2109Z" fill="white"/>
<path fill-rule="evenodd" clip-rule="evenodd" d="M26.4252 37.0313C27.8561 37.4715 29.373 36.6684 29.8132 35.2375C30.2535 33.8066 29.4504 32.2897 28.0195 31.8495C27.104 31.5678 26.1532 31.7951 25.4718 32.3702C26.0729 31.9621 26.847 31.8206 27.5954 32.0509C28.9046 32.4537 29.6393 33.8415 29.2365 35.1506C28.8337 36.4597 27.4459 37.1945 26.1368 36.7917C25.8058 36.6898 25.5115 36.525 25.2631 36.3145C25.5724 36.6385 25.9666 36.8902 26.4252 37.0313Z" fill="white"/>
<path fill-rule="evenodd" clip-rule="evenodd" d="M26.4252 43.6791C27.8561 44.1194 29.373 43.3163 29.8132 41.8854C30.2535 40.4545 29.4504 38.9376 28.0195 38.4973C27.1039 38.2156 26.153 38.443 25.4716 39.0182C26.0727 38.61 26.8469 38.4685 27.5954 38.6988C28.9046 39.1016 29.6393 40.4893 29.2365 41.7985C28.8337 43.1076 27.4459 43.8424 26.1368 43.4396C25.8059 43.3378 25.5116 43.173 25.2632 42.9625C25.5726 43.2864 25.9666 43.538 26.4252 43.6791Z" fill="white"/>
<path fill-rule="evenodd" clip-rule="evenodd" d="M26.425 50.3269C27.856 50.7672 29.3729 49.9641 29.8131 48.5332C30.2534 47.1023 29.4503 45.5854 28.0194 45.1451C27.1038 44.8634 26.1531 45.0907 25.4717 45.6658C26.0728 45.2578 26.8469 45.1163 27.5953 45.3465C28.9045 45.7493 29.6392 47.1371 29.2364 48.4462C28.8336 49.7554 27.4458 50.4901 26.1367 50.0873C25.8057 49.9855 25.5114 49.8207 25.263 49.6101C25.5723 49.9341 25.9664 50.1858 26.425 50.3269Z" fill="white"/>
<path d="M36.0466 70.4612C36.0466 76.4606 33.2974 80.1782 31.9228 80.5574C33.1315 78.851 34.7668 74.585 34.7668 70.4612C34.7668 66.3374 32.8471 4.80025 33.3093 1.8496C33.6746 -0.48249 34.992 -0.129351 35.8333 0.356499C37.9308 1.8259 42.2466 4.77181 42.7301 4.80025C43.3344 4.8358 42.9434 4.44475 42.9078 3.4138C42.8794 2.58904 44.8394 2.45395 45.8229 2.4895C46.0955 2.7976 46.7828 3.45646 47.3516 3.6271C47.9204 3.79774 48.8684 3.556 49.2713 3.4138C49.4609 3.66265 50.4018 4.64383 52.6485 6.57776C45.3963 9.52841 38.6063 2.4895 36.1888 1.3519C34.2549 0.441821 34.1269 1.7311 34.1269 2.4895C34.9801 22.6345 36.0466 63.92 36.0466 70.4612Z" fill="white"/>
<line x1="45.5427" y1="54.5563" x2="276.102" y2="54.5563" stroke="white" stroke-opacity="0.5" stroke-width="0.948806"/>
</svg>
